# xmcd
#
# Track frame offsets:
#	150
#	11938
#	29727
#	49266
#	62584
#
# Disc length: 1021 seconds
#
# Revision: 0
# Processed by: cddbd v1.5.1PL2 Copyright (c) Steve Scherf et al.
# Submitted via: dBpowerAMP V4.0
#
DISCID=4303fb05
DTITLE=Soul Power - Soul Power
DYEAR=1900
DGENRE=Blues
TTITLE0=Hold on I'm comin'
TTITLE1=I say a little prayer
TTITLE2=Try a little tenderness
TTITLE3=Son of a preacher man
TTITLE4=Papa's got a brand new bag
EXTD=
EXTT0=
EXTT1=
EXTT2=
EXTT3=
EXTT4=
PLAYORDER=
